<svg xmlns="http://www.w3.org/2000/svg" viewBox="0 0 128 150" role="img" aria-labelledby="title desc">
  <title id="title">The McLean Club crest</title>
  <desc id="desc">A white ornamental club crest with the letters MC.</desc>
  <g fill="none" stroke="#fffdf8" stroke-width="3" stroke-linecap="round" stroke-linejoin="round">
    <path d="M26 18h76v15H26z"/>
    <path d="M32 33h64v14H32z"/>
    <path d="M37 47h54l-8 31c-3 13-10 22-19 26-9-4-16-13-19-26z"/>
    <path d="M45 79h38"/>
    <path d="M50 97h28"/>
    <path d="M64 104v24"/>
    <path d="M48 128h32"/>
    <path d="M39 139h50"/>
  </g>
  <g fill="#fffdf8">
    <rect x="35" y="23" width="4" height="7"/>
    <rect x="46" y="23" width="4" height="7"/>
    <rect x="57" y="23" width="4" height="7"/>
    <rect x="68" y="23" width="4" height="7"/>
    <rect x="79" y="23" width="4" height="7"/>
    <rect x="90" y="23" width="4" height="7"/>
  </g>
  <text
    x="64"
    y="71"
    fill="#fffdf8"
    font-family="Georgia, 'Times New Roman', serif"
    font-size="24"
    font-weight="700"
    text-anchor="middle"
  >MC</text>
</svg>
